<?xml version="1.0" encoding="utf-8"?>
<!-- Generator: Adobe Illustrator 16.0.0, SVG Export Plug-In . SVG Version: 6.00 Build 0)  -->
<!DOCTYPE svg PUBLIC "-//W3C//DTD SVG 1.1//EN" "http://www.w3.org/Graphics/SVG/1.1/DTD/svg11.dtd">
<svg version="1.1" xmlns="http://www.w3.org/2000/svg" xmlns:xlink="http://www.w3.org/1999/xlink" x="0px" y="0px" width="256px"
	 height="256px" viewBox="0 0 256 256" enable-background="new 0 0 256 256" xml:space="preserve">
<g id="背景">
	<path fill="#DA7781" d="M256,206c0,27.614-22.387,50-50,50H50c-27.615,0-50-22.386-50-50V50C0,22.386,22.385,0,50,0h156
		c27.613,0,50,22.386,50,50V206z"/>
</g>
<g id="Logo">
	<g>
		<path fill="none" stroke="#FFFFFF" stroke-width="10" stroke-miterlimit="10" d="M175.076,51.5
			c26.021,0,47.078,21.056,47.078,47.077c0,58.546-82.385,105.922-94.154,105.922S33.846,157.124,33.846,98.578
			c0-26.021,21.056-47.077,47.077-47.078C106.943,51.5,128,72.556,128,98.577C128,72.556,149.057,51.5,175.076,51.5z"/>
		<polyline fill="none" stroke="#FFFFFF" stroke-width="10" stroke-miterlimit="10" points="47.308,66.539 128,147.229 
			208.693,66.539 		"/>
		<g>
			
				<line fill="none" stroke="#FFFFFF" stroke-width="10" stroke-miterlimit="10" x1="189.896" y1="164.59" x2="150.691" y2="125.386"/>
			
				<line fill="none" stroke="#FFFFFF" stroke-width="10" stroke-miterlimit="10" x1="105.307" y1="125.385" x2="66.103" y2="164.59"/>
		</g>
	</g>
</g>
</svg>
