<?xml version="1.0" encoding="utf-8"?>
<!-- Generator: Adobe Illustrator 16.0.0, SVG Export Plug-In . SVG Version: 6.00 Build 0)  -->
<!DOCTYPE svg PUBLIC "-//W3C//DTD SVG 1.1//EN" "http://www.w3.org/Graphics/SVG/1.1/DTD/svg11.dtd">
<svg version="1.1" xmlns="http://www.w3.org/2000/svg" xmlns:xlink="http://www.w3.org/1999/xlink" x="0px" y="0px" width="360px"
	 height="360px" viewBox="0 0 360 360" enable-background="new 0 0 360 360" xml:space="preserve">
<g id="图层_4">
	<path fill="#5E9C33" d="M360,303.307C360,334.617,334.617,360,303.307,360H56.693C25.382,360,0,334.617,0,303.307V56.693
		C0,25.382,25.382,0,56.693,0h246.613C334.617,0,360,25.382,360,56.693V303.307z"/>
</g>
<g id="坐标系">
</g>
<g id="心形">
	<g>
		<g>
			<g>
				<line fill="none" stroke="#FFFFFF" stroke-width="7" stroke-miterlimit="10" x1="180" y1="50.827" x2="180" y2="324"/>
				<g>
					<polygon fill="#FFFFFF" points="180,36 171.462,56.894 180,51.936 188.535,56.894 					"/>
				</g>
			</g>
		</g>
		<g>
			<g>
				<line fill="none" stroke="#FFFFFF" stroke-width="7" stroke-miterlimit="10" x1="309.173" y1="180" x2="36" y2="180"/>
				<g>
					<polygon fill="#FFFFFF" points="324,180 303.106,171.462 308.064,180 303.106,188.535 					"/>
				</g>
			</g>
		</g>
		<line fill="none" stroke="#FFFFFF" stroke-width="7" stroke-miterlimit="10" x1="196" y1="180" x2="196" y2="172"/>
		<line fill="none" stroke="#FFFFFF" stroke-width="7" stroke-miterlimit="10" x1="212" y1="180" x2="212" y2="172"/>
		<line fill="none" stroke="#FFFFFF" stroke-width="7" stroke-miterlimit="10" x1="228" y1="180" x2="228" y2="164"/>
		<line fill="none" stroke="#FFFFFF" stroke-width="7" stroke-miterlimit="10" x1="244" y1="180" x2="244" y2="172"/>
		<line fill="none" stroke="#FFFFFF" stroke-width="7" stroke-miterlimit="10" x1="260" y1="180" x2="260" y2="172"/>
		<line fill="none" stroke="#FFFFFF" stroke-width="7" stroke-miterlimit="10" x1="276" y1="180" x2="276" y2="164"/>
		<line fill="none" stroke="#FFFFFF" stroke-width="7" stroke-miterlimit="10" x1="292" y1="180" x2="292" y2="172"/>
		<line fill="none" stroke="#FFFFFF" stroke-width="7" stroke-miterlimit="10" x1="52" y1="180" x2="52" y2="172"/>
		<line fill="none" stroke="#FFFFFF" stroke-width="7" stroke-miterlimit="10" x1="68" y1="180" x2="68" y2="172"/>
		<line fill="none" stroke="#FFFFFF" stroke-width="7" stroke-miterlimit="10" x1="84" y1="180" x2="84" y2="164"/>
		<line fill="none" stroke="#FFFFFF" stroke-width="7" stroke-miterlimit="10" x1="100" y1="180" x2="100" y2="172"/>
		<line fill="none" stroke="#FFFFFF" stroke-width="7" stroke-miterlimit="10" x1="116" y1="180" x2="116" y2="172"/>
		<line fill="none" stroke="#FFFFFF" stroke-width="7" stroke-miterlimit="10" x1="132" y1="180" x2="132" y2="164"/>
		<line fill="none" stroke="#FFFFFF" stroke-width="7" stroke-miterlimit="10" x1="148" y1="180" x2="148" y2="172"/>
		<line fill="none" stroke="#FFFFFF" stroke-width="7" stroke-miterlimit="10" x1="164" y1="180" x2="164" y2="172"/>
		<line fill="none" stroke="#FFFFFF" stroke-width="7" stroke-miterlimit="10" x1="180" y1="196" x2="188" y2="196"/>
		<line fill="none" stroke="#FFFFFF" stroke-width="7" stroke-miterlimit="10" x1="180" y1="212" x2="188" y2="212"/>
		<line fill="none" stroke="#FFFFFF" stroke-width="7" stroke-miterlimit="10" x1="180" y1="228" x2="196" y2="228"/>
		<line fill="none" stroke="#FFFFFF" stroke-width="7" stroke-miterlimit="10" x1="180" y1="244" x2="188" y2="244"/>
		<line fill="none" stroke="#FFFFFF" stroke-width="7" stroke-miterlimit="10" x1="180" y1="260" x2="188" y2="260"/>
		<line fill="none" stroke="#FFFFFF" stroke-width="7" stroke-miterlimit="10" x1="180" y1="276" x2="196" y2="276"/>
		<line fill="none" stroke="#FFFFFF" stroke-width="7" stroke-miterlimit="10" x1="180" y1="292" x2="188" y2="292"/>
		<line fill="none" stroke="#FFFFFF" stroke-width="7" stroke-miterlimit="10" x1="180" y1="308" x2="188" y2="308"/>
		<line fill="none" stroke="#FFFFFF" stroke-width="7" stroke-miterlimit="10" x1="180" y1="68" x2="188" y2="68"/>
		<line fill="none" stroke="#FFFFFF" stroke-width="7" stroke-miterlimit="10" x1="180" y1="84" x2="196" y2="84"/>
		<line fill="none" stroke="#FFFFFF" stroke-width="7" stroke-miterlimit="10" x1="180" y1="100" x2="188" y2="100"/>
		<line fill="none" stroke="#FFFFFF" stroke-width="7" stroke-miterlimit="10" x1="180" y1="116" x2="188" y2="116"/>
		<line fill="none" stroke="#FFFFFF" stroke-width="7" stroke-miterlimit="10" x1="180" y1="132" x2="196" y2="132"/>
		<line fill="none" stroke="#FFFFFF" stroke-width="7" stroke-miterlimit="10" x1="180" y1="148" x2="188" y2="148"/>
		<line fill="none" stroke="#FFFFFF" stroke-width="7" stroke-miterlimit="10" x1="180" y1="164" x2="188" y2="164"/>
		<path fill="none" stroke="#FFFFFF" stroke-width="7" stroke-miterlimit="10" d="M244,68c-35.375,0-64,28.625-64,64
			c0-35.375-28.625-64-64-64s-64,28.625-64,64c0,88.438,128,128,128,160c0-32,128-71.563,128-160C308,96.625,279.375,68,244,68z"/>
	</g>
</g>
</svg>
